<svg xmlns="http://www.w3.org/2000/svg" viewBox="0 0 350 350" width="1400" height="1400" role="img" aria-label="QR code to zarosoft.com">
<defs><linearGradient id="zg" x1="0" y1="0" x2="1" y2="1"><stop offset="0" stop-color="#2EE6EE"/><stop offset="1" stop-color="#00C2E8"/></linearGradient></defs>
<rect x="5" y="5" width="340" height="340" rx="16" fill="#FFFFFF" stroke="#0A74FF" stroke-width="5"/>
<path fill="#0B2556" d="M150 30h10v10h-10zM160 30h10v10h-10zM180 30h10v10h-10zM210 30h10v10h-10zM230 30h10v10h-10zM120 40h10v10h-10zM130 40h10v10h-10zM140 40h10v10h-10zM170 40h10v10h-10zM190 40h10v10h-10zM220 40h10v10h-10zM230 40h10v10h-10zM130 50h10v10h-10zM180 50h10v10h-10zM190 50h10v10h-10zM230 50h10v10h-10zM150 60h10v10h-10zM160 60h10v10h-10zM180 60h10v10h-10zM190 60h10v10h-10zM200 60h10v10h-10zM220 60h10v10h-10zM230 60h10v10h-10zM110 70h10v10h-10zM120 70h10v10h-10zM130 70h10v10h-10zM150 70h10v10h-10zM160 70h10v10h-10zM180 70h10v10h-10zM200 70h10v10h-10zM220 70h10v10h-10zM130 80h10v10h-10zM150 80h10v10h-10zM170 80h10v10h-10zM220 80h10v10h-10zM230 80h10v10h-10zM110 90h10v10h-10zM130 90h10v10h-10zM150 90h10v10h-10zM170 90h10v10h-10zM190 90h10v10h-10zM210 90h10v10h-10zM230 90h10v10h-10zM110 100h10v10h-10zM120 100h10v10h-10zM130 100h10v10h-10zM140 100h10v10h-10zM150 100h10v10h-10zM160 100h10v10h-10zM170 100h10v10h-10zM200 100h10v10h-10zM210 100h10v10h-10zM230 100h10v10h-10zM50 110h10v10h-10zM60 110h10v10h-10zM90 110h10v10h-10zM100 110h10v10h-10zM110 110h10v10h-10zM120 110h10v10h-10zM160 110h10v10h-10zM190 110h10v10h-10zM220 110h10v10h-10zM230 110h10v10h-10zM240 110h10v10h-10zM250 110h10v10h-10zM270 110h10v10h-10zM30 120h10v10h-10zM50 120h10v10h-10zM70 120h10v10h-10zM130 120h10v10h-10zM150 120h10v10h-10zM160 120h10v10h-10zM170 120h10v10h-10zM180 120h10v10h-10zM190 120h10v10h-10zM200 120h10v10h-10zM240 120h10v10h-10zM250 120h10v10h-10zM260 120h10v10h-10zM270 120h10v10h-10zM280 120h10v10h-10zM290 120h10v10h-10zM310 120h10v10h-10zM30 130h10v10h-10zM40 130h10v10h-10zM70 130h10v10h-10zM90 130h10v10h-10zM110 130h10v10h-10zM120 130h10v10h-10zM130 130h10v10h-10zM140 130h10v10h-10zM170 130h10v10h-10zM180 130h10v10h-10zM190 130h10v10h-10zM200 130h10v10h-10zM210 130h10v10h-10zM250 130h10v10h-10zM270 130h10v10h-10zM280 130h10v10h-10zM300 130h10v10h-10zM50 140h10v10h-10zM80 140h10v10h-10zM130 140h10v10h-10zM210 140h10v10h-10zM220 140h10v10h-10zM310 140h10v10h-10zM40 150h10v10h-10zM50 150h10v10h-10zM70 150h10v10h-10zM80 150h10v10h-10zM90 150h10v10h-10zM100 150h10v10h-10zM240 150h10v10h-10zM260 150h10v10h-10zM290 150h10v10h-10zM300 150h10v10h-10zM310 150h10v10h-10zM30 160h10v10h-10zM50 160h10v10h-10zM60 160h10v10h-10zM70 160h10v10h-10zM80 160h10v10h-10zM100 160h10v10h-10zM220 160h10v10h-10zM250 160h10v10h-10zM260 160h10v10h-10zM280 160h10v10h-10zM290 160h10v10h-10zM310 160h10v10h-10zM80 170h10v10h-10zM90 170h10v10h-10zM110 170h10v10h-10zM120 170h10v10h-10zM130 170h10v10h-10zM210 170h10v10h-10zM220 170h10v10h-10zM240 170h10v10h-10zM260 170h10v10h-10zM270 170h10v10h-10zM280 170h10v10h-10zM300 170h10v10h-10zM310 170h10v10h-10zM30 180h10v10h-10zM40 180h10v10h-10zM80 180h10v10h-10zM210 180h10v10h-10zM220 180h10v10h-10zM250 180h10v10h-10zM270 180h10v10h-10zM280 180h10v10h-10zM310 180h10v10h-10zM30 190h10v10h-10zM50 190h10v10h-10zM60 190h10v10h-10zM80 190h10v10h-10zM90 190h10v10h-10zM100 190h10v10h-10zM130 190h10v10h-10zM210 190h10v10h-10zM220 190h10v10h-10zM230 190h10v10h-10zM240 190h10v10h-10zM260 190h10v10h-10zM270 190h10v10h-10zM280 190h10v10h-10zM40 200h10v10h-10zM50 200h10v10h-10zM60 200h10v10h-10zM70 200h10v10h-10zM80 200h10v10h-10zM130 200h10v10h-10zM210 200h10v10h-10zM220 200h10v10h-10zM230 200h10v10h-10zM260 200h10v10h-10zM30 210h10v10h-10zM60 210h10v10h-10zM90 210h10v10h-10zM100 210h10v10h-10zM110 210h10v10h-10zM130 210h10v10h-10zM150 210h10v10h-10zM160 210h10v10h-10zM170 210h10v10h-10zM200 210h10v10h-10zM210 210h10v10h-10zM220 210h10v10h-10zM250 210h10v10h-10zM290 210h10v10h-10zM60 220h10v10h-10zM70 220h10v10h-10zM100 220h10v10h-10zM110 220h10v10h-10zM120 220h10v10h-10zM140 220h10v10h-10zM150 220h10v10h-10zM160 220h10v10h-10zM180 220h10v10h-10zM190 220h10v10h-10zM210 220h10v10h-10zM220 220h10v10h-10zM240 220h10v10h-10zM250 220h10v10h-10zM270 220h10v10h-10zM280 220h10v10h-10zM290 220h10v10h-10zM40 230h10v10h-10zM50 230h10v10h-10zM60 230h10v10h-10zM90 230h10v10h-10zM120 230h10v10h-10zM140 230h10v10h-10zM150 230h10v10h-10zM160 230h10v10h-10zM180 230h10v10h-10zM190 230h10v10h-10zM230 230h10v10h-10zM240 230h10v10h-10zM250 230h10v10h-10zM260 230h10v10h-10zM270 230h10v10h-10zM290 230h10v10h-10zM300 230h10v10h-10zM310 230h10v10h-10zM110 240h10v10h-10zM120 240h10v10h-10zM130 240h10v10h-10zM140 240h10v10h-10zM160 240h10v10h-10zM170 240h10v10h-10zM180 240h10v10h-10zM200 240h10v10h-10zM220 240h10v10h-10zM230 240h10v10h-10zM270 240h10v10h-10zM280 240h10v10h-10zM310 240h10v10h-10zM110 250h10v10h-10zM120 250h10v10h-10zM130 250h10v10h-10zM210 250h10v10h-10zM220 250h10v10h-10zM230 250h10v10h-10zM250 250h10v10h-10zM270 250h10v10h-10zM290 250h10v10h-10zM300 250h10v10h-10zM150 260h10v10h-10zM160 260h10v10h-10zM170 260h10v10h-10zM230 260h10v10h-10zM270 260h10v10h-10zM300 260h10v10h-10zM130 270h10v10h-10zM160 270h10v10h-10zM200 270h10v10h-10zM230 270h10v10h-10zM240 270h10v10h-10zM250 270h10v10h-10zM260 270h10v10h-10zM270 270h10v10h-10zM280 270h10v10h-10zM290 270h10v10h-10zM310 270h10v10h-10zM110 280h10v10h-10zM130 280h10v10h-10zM140 280h10v10h-10zM150 280h10v10h-10zM170 280h10v10h-10zM180 280h10v10h-10zM210 280h10v10h-10zM220 280h10v10h-10zM270 280h10v10h-10zM280 280h10v10h-10zM290 280h10v10h-10zM300 280h10v10h-10zM110 290h10v10h-10zM120 290h10v10h-10zM160 290h10v10h-10zM170 290h10v10h-10zM190 290h10v10h-10zM200 290h10v10h-10zM230 290h10v10h-10zM260 290h10v10h-10zM280 290h10v10h-10zM310 290h10v10h-10zM120 300h10v10h-10zM130 300h10v10h-10zM140 300h10v10h-10zM160 300h10v10h-10zM180 300h10v10h-10zM210 300h10v10h-10zM250 300h10v10h-10zM270 300h10v10h-10zM300 300h10v10h-10zM120 310h10v10h-10zM130 310h10v10h-10zM150 310h10v10h-10zM170 310h10v10h-10zM180 310h10v10h-10zM210 310h10v10h-10zM230 310h10v10h-10zM240 310h10v10h-10zM260 310h10v10h-10zM300 310h10v10h-10z" shape-rendering="crispEdges"/>
<rect x="35" y="35" width="60" height="60" rx="16" fill="none" stroke="#0B2556" stroke-width="10"/><rect x="50" y="50" width="30" height="30" rx="5" fill="#0A74FF"/><rect x="255" y="35" width="60" height="60" rx="16" fill="none" stroke="#0B2556" stroke-width="10"/><rect x="270" y="50" width="30" height="30" rx="5" fill="#0A74FF"/><rect x="35" y="255" width="60" height="60" rx="16" fill="none" stroke="#0B2556" stroke-width="10"/><rect x="50" y="270" width="30" height="30" rx="5" fill="#0A74FF"/>
<polygon points="169.4,165.0 204.1,165.0 189.3,193.7 154.6,193.7" fill="#0055FF" stroke="#0055FF" stroke-width="8.68" stroke-linejoin="round"/>
<polygon opacity="0.94" points="162.4,158.1 197.1,158.1 182.4,186.7 147.7,186.7" fill="url(#zg)" stroke="url(#zg)" stroke-width="8.68" stroke-linejoin="round"/>
</svg>